{"title":"Sense And Sensibility_720p.hdtv.x264_TTL","uid":6492916,"size":2185625571,"categoryP":"video","categoryS":"hd___tv_shows","magnet":"?xt=urn:btih:65441d90a4d755151d1d0a28898d50dd4143dc68&amp;dn=Sense+And+Sensibility_720p.hdtv.x264_TTL&amp;tr=udp%3A%2F%2Ftracker.openbittorrent.com%3A80&amp;tr=udp%3A%2F%2Fopen.demonii.com%3A1337&amp;tr=udp%3A%2F%2Ftracker.coppersurfer.tk%3A6969&amp;tr=udp%3A%2F%2Fexodus.desync.com%3A6969","seeders":0,"leechers":1,"uploader":"thetorrentlord","files":10,"time":1308951009,"description":"Episode #1of3\n\nWhen Mr. Dashwood dies, he leaves his Sussex estate Norland -undivided, as the law requires- to his first marriage son John. John's wife, Fanny, convinces him to deny, in the name of their only son Henry's inheritance, his widowed stepmother and her three daughters the generosity understood at pap's deathbed. When the heiress-in-law's brother Edward Ferrars visits, he proves a perfect, understanding gentleman mutually drawn to eldest daughter Elinor, but she's told mother Ferrars makes inheriting the vast family fortune conditional on marrying well. Once mother comes to terms with their impoverished status, she accepts country relative Sir John Middleton's offer to rent his cottage in Devonshire without even seeing it, and moves with only two servants, Thomas and Alice. Sir John insists on visits and his wife presents them to the county's best catch, rich widower Colonel Brandon, who shows interest in middle daughter Marianne, but she plays hard to get and thus falls -initially literally- for younger gentleman Willoughby.\t\t\t\t\t\t\t\t\t\t\t\t\t\t\t\t\t\t\t\t\t\t\t\t\t\t******************************************************************************************************\t\t\t\t\t\t\t\t\t\t\t\t\t\t\t\t\t\t\t\t\t\t\t\t\t\t\t\t\t\t\t\t\t\t\t\t\t\t\t\t\t\t\t\t\tMasterpiece_Mystery_Sense_And_Sensibility_720p.hdtv.x264_TTL.mkv\n\t\t\t\t\t\t\t\t\t\t                  Format                           : Matroska\nFile size                        : 1.98 GiB\nDuration                         : 1h 21mn\nOverall bit rate                 : 3 472 Kbps\nMovie name                       : Masterpiece_Mystery_Sense_And_Sensibility_720p_TTL.mpg\nWriting application              : SUPER(C)   \nWriting library                  : SUPER(C)   \n\nVideo\nID                               : 1\nFormat                           : AVC\nFormat/Info                      : Advanced Video Codec\nFormat profile                   : &lt;a class=&quot;__cf_email__&quot; href=&quot;/cdn-cgi/l/email-protection&quot; data-cfemail=&quot;c785a6b4a2abaea9a2878bf6e9f4&quot;&gt;[email&amp;#160;protected]&lt;/a&gt;&lt;script cf-hash='f9e31' type=&quot;text/javascript&quot;&gt;\n/* &lt;![CDATA[ */!function(){try{var t=&quot;currentScript&quot;in document?document.currentScript:function(){for(var t=document.getElementsByTagName(&quot;script&quot;),e=t.length;e--;)if(t[e].getAttribute(&quot;cf-hash&quot;))return t[e]}();if(t&amp;&amp;t.previousSibling){var e,r,n,i,c=t.previousSibling,a=c.getAttribute(&quot;data-cfemail&quot;);if(a){for(e=&quot;&quot;,r=parseInt(a.substr(0,2),16),n=2;a.length-n;n+=2)i=parseInt(a.substr(n,2),16)^r,e+=String.fromCharCode(i);e=document.createTextNode(e),c.parentNode.replaceChild(e,c)}}}catch(u){}}();/* ]]&gt; */&lt;/script&gt;\nFormat settings, CABAC           : No\nFormat settings, ReFrames        : 1 frame\nMuxing mode                      : Container profile=&lt;a class=&quot;__cf_email__&quot; href=&quot;/cdn-cgi/l/email-protection&quot; data-cfemail=&quot;c792a9aca9a8b0a987f6e9f4&quot;&gt;[email&amp;#160;protected]&lt;/a&gt;&lt;script cf-hash='f9e31' type=&quot;text/javascript&quot;&gt;\n/* &lt;![CDATA[ */!function(){try{var t=&quot;currentScript&quot;in document?document.currentScript:function(){for(var t=document.getElementsByTagName(&quot;script&quot;),e=t.length;e--;)if(t[e].getAttribute(&quot;cf-hash&quot;))return t[e]}();if(t&amp;&amp;t.previousSibling){var e,r,n,i,c=t.previousSibling,a=c.getAttribute(&quot;data-cfemail&quot;);if(a){for(e=&quot;&quot;,r=parseInt(a.substr(0,2),16),n=2;a.length-n;n+=2)i=parseInt(a.substr(n,2),16)^r,e+=String.fromCharCode(i);e=document.createTextNode(e),c.parentNode.replaceChild(e,c)}}}catch(u){}}();/* ]]&gt; */&lt;/script&gt;\nCodec ID                         : V_MPEG4/ISO/AVC\nDuration                         : 1h 21mn\nBit rate                         : 3 147 Kbps\nWidth                            : 1 280 pixels\nHeight                           : 720 pixels\nDisplay aspect ratio             : 16:9\nFrame rate                       : 29.970 fps\nColor space                      : YUV\nChroma subsampling               : 4:2:0\nBit depth                        : 8 bits\nScan type                        : Progressive\nBits/(Pixel*Frame)               : 0.114\nStream size                      : 1.80 GiB (91%)\n\nAudio\nID                               : 2\nFormat                           : AC-3\nFormat/Info                      : Audio Coding 3\nMode extension                   : CM (complete main)\nCodec ID                         : A_AC3\nDuration                         : 1h 21mn\nBit rate mode                    : Constant\nBit rate                         : 256 Kbps\nChannel(s)                       : 2 channels\nChannel positions                : Front: L R\nSampling rate                    : 48.0 KHz\nBit depth                        : 16 bits\nStream size                      : 150 MiB (7%)\n\n","torrent":{"xt":"urn:btih:65441d90a4d755151d1d0a28898d50dd4143dc68","amp;dn":"Sense+And+Sensibility_720p.hdtv.x264_TTL","amp;tr":["udp%3A%2F%2Ftracker.openbittorrent.com%3A80","udp%3A%2F%2Fopen.demonii.com%3A1337","udp%3A%2F%2Ftracker.coppersurfer.tk%3A6969","udp%3A%2F%2Fexodus.desync.com%3A6969"],"infoHash":"65441d90a4d755151d1d0a28898d50dd4143dc68","infoHashBuffer":{"type":"Buffer","data":[101,68,29,144,164,215,85,21,29,29,10,40,137,141,80,221,65,67,220,104]},"announce":[],"urlList":[]}}